<?xml version="1.0" encoding="utf-8"?>
<!-- Generator: Adobe Illustrator 25.0.1, SVG Export Plug-In . SVG Version: 6.00 Build 0)  -->
<svg version="1.1" id="Слой_1" focusable="false"
	 xmlns="http://www.w3.org/2000/svg" xmlns:xlink="http://www.w3.org/1999/xlink" x="0px" y="0px" viewBox="0 0 666.1 666.1"
	 style="enable-background:new 0 0 666.1 666.1;" xml:space="preserve">
<style type="text/css">
	.st0{fill:#1EA81E;}
</style>
<g>
	
		<image style="overflow:visible;" width="495" height="744" xlink:href="93EB3469.png"  transform="matrix(1 0 0 1 85.0472 -37.9528)">
	</image>
	<g>
		<path class="st0" d="M332.8,13.5c3.1,0,6.1,1.7,7.5,4.5l53.5,89.1c0.8,1.4,1.4,2.8,1.4,4.5c0,1.4-0.3,3.1-1.1,4.5
			c-1.7,2.8-4.5,4.5-7.8,4.5h-35.6v238.7c39.6-25.3,106.9-40.5,106.9-69.6V263h-26.8c-5,0-8.9-3.9-8.9-8.9V165c0-5,3.9-8.9,8.9-8.9
			h89.1c5,0,8.9,3.9,8.9,8.9v89.1c0,5-3.9,8.9-8.9,8.9h-26.7v26.7c0,75.4-142.5,81.1-142.5,124.7v100.3c30.6,8.1,53.5,35.9,53.5,69
			c-0.1,39.3-32.1,71.3-71.4,71.3s-71.3-32-71.3-71.3c0-33.1,22.8-61,53.5-69c0-39.1,9.5-43.9-60.4-74.6
			c-89.1-40.1-82.1-58.1-82.1-108.9c-20.9-7.5-35.6-27-35.6-50.4c0-29.5,23.9-53.5,53.5-53.5s53.5,23.9,53.5,53.5
			c0,23.4-14.8,42.9-35.6,50.4V361c0,29.1,67.4,44.3,106.9,69.6V120.5h-35.6c-3.3,0-6.1-1.7-7.8-4.5c-1.7-2.8-1.4-6.4,0.3-8.9
			L325.6,18C326.7,15.2,329.7,13.5,332.8,13.5L332.8,13.5z"/>
	</g>
</g>
</svg>
